<?xml version="1.0" encoding="UTF-8" standalone="no"?>
<!DOCTYPE svg PUBLIC "-//W3C//DTD SVG 1.1//EN"
 "http://www.w3.org/Graphics/SVG/1.1/DTD/svg11.dtd">
<!-- Generated by graphviz version 2.43.0 (0)
 -->
<!-- Title: WireProtocolDesign Pages: 1 -->
<svg width="1104pt" height="116pt"
 viewBox="0.00 0.00 1104.00 115.50" xmlns="http://www.w3.org/2000/svg" xmlns:xlink="http://www.w3.org/1999/xlink">
<g id="graph0" class="graph" transform="scale(1 1) rotate(0) translate(4 111.5)">
<title>WireProtocolDesign</title>
<polygon fill="white" stroke="transparent" points="-4,4 -4,-111.5 1100,-111.5 1100,4 -4,4"/>
<!-- EarlyDesignChoices -->
<g id="node1" class="node">
<title>EarlyDesignChoices</title>
<polygon fill="#f9f9f9" stroke="black" points="146,-75.5 0,-75.5 0,-39.5 146,-39.5 146,-75.5"/>
<text text-anchor="middle" x="73" y="-53.8" font-family="Helvetica,sans-Serif" font-size="14.00">Early Design Choices</text>
</g>
<!-- WireProtocol -->
<g id="node2" class="node">
<title>WireProtocol</title>
<polygon fill="#f9f9f9" stroke="black" points="326,-75.5 182,-75.5 182,-39.5 326,-39.5 326,-75.5"/>
<text text-anchor="middle" x="254" y="-53.8" font-family="Helvetica,sans-Serif" font-size="14.00">Wire Protocol Design</text>
</g>
<!-- EarlyDesignChoices&#45;&gt;WireProtocol -->
<g id="edge1" class="edge">
<title>EarlyDesignChoices&#45;&gt;WireProtocol</title>
<path fill="none" stroke="black" d="M146.03,-57.5C154.55,-57.5 163.29,-57.5 171.92,-57.5"/>
<polygon fill="black" stroke="black" points="171.99,-61 181.99,-57.5 171.99,-54 171.99,-61"/>
</g>
<!-- GoodDesign -->
<g id="node3" class="node">
<title>GoodDesign</title>
<polygon fill="#f9f9f9" stroke="black" points="458,-102.5 362,-102.5 362,-66.5 458,-66.5 458,-102.5"/>
<text text-anchor="middle" x="410" y="-80.8" font-family="Helvetica,sans-Serif" font-size="14.00">Good Design</text>
</g>
<!-- WireProtocol&#45;&gt;GoodDesign -->
<g id="edge2" class="edge">
<title>WireProtocol&#45;&gt;GoodDesign</title>
<path fill="none" stroke="black" d="M326.14,-69.97C334.77,-71.49 343.5,-73.02 351.88,-74.49"/>
<polygon fill="black" stroke="black" points="351.47,-77.97 361.92,-76.25 352.68,-71.07 351.47,-77.97"/>
</g>
<!-- BadDesign -->
<g id="node4" class="node">
<title>BadDesign</title>
<polygon fill="#f9f9f9" stroke="black" points="453,-48.5 367,-48.5 367,-12.5 453,-12.5 453,-48.5"/>
<text text-anchor="middle" x="410" y="-26.8" font-family="Helvetica,sans-Serif" font-size="14.00">Bad Design</text>
</g>
<!-- WireProtocol&#45;&gt;BadDesign -->
<g id="edge3" class="edge">
<title>WireProtocol&#45;&gt;BadDesign</title>
<path fill="none" stroke="black" d="M326.14,-45.03C336.43,-43.22 346.87,-41.39 356.7,-39.67"/>
<polygon fill="black" stroke="black" points="357.46,-43.09 366.7,-37.92 356.25,-36.2 357.46,-43.09"/>
</g>
<!-- Flexible -->
<g id="node5" class="node">
<title>Flexible</title>
<polygon fill="#f9f9f9" stroke="black" points="636,-105.5 494,-105.5 494,-69.5 636,-69.5 636,-105.5"/>
<text text-anchor="middle" x="565" y="-83.8" font-family="Helvetica,sans-Serif" font-size="14.00">Flexible &amp; Extensible</text>
</g>
<!-- GoodDesign&#45;&gt;Flexible -->
<g id="edge4" class="edge">
<title>GoodDesign&#45;&gt;Flexible</title>
<path fill="none" stroke="black" d="M458.15,-85.42C466.29,-85.58 474.96,-85.75 483.69,-85.93"/>
<polygon fill="black" stroke="black" points="483.87,-89.43 493.94,-86.13 484.01,-82.43 483.87,-89.43"/>
</g>
<!-- HardToEvolve -->
<g id="node6" class="node">
<title>HardToEvolve</title>
<polygon fill="#f9f9f9" stroke="black" points="632,-49.5 498,-49.5 498,-11.5 632,-11.5 632,-49.5"/>
<text text-anchor="middle" x="565" y="-34.3" font-family="Helvetica,sans-Serif" font-size="14.00">Hard to Evolve</text>
<text text-anchor="middle" x="565" y="-19.3" font-family="Helvetica,sans-Serif" font-size="14.00">(Breaks old installs)</text>
</g>
<!-- BadDesign&#45;&gt;HardToEvolve -->
<g id="edge5" class="edge">
<title>BadDesign&#45;&gt;HardToEvolve</title>
<path fill="none" stroke="black" d="M453.21,-30.5C463.89,-30.5 475.68,-30.5 487.48,-30.5"/>
<polygon fill="black" stroke="black" points="487.81,-34 497.81,-30.5 487.81,-27 487.81,-34"/>
</g>
<!-- CommunityEvolves -->
<g id="node7" class="node">
<title>CommunityEvolves</title>
<polygon fill="#f9f9f9" stroke="black" points="866,-107.5 672,-107.5 672,-71.5 866,-71.5 866,-107.5"/>
<text text-anchor="middle" x="769" y="-85.8" font-family="Helvetica,sans-Serif" font-size="14.00">Community Evolves Together</text>
</g>
<!-- Flexible&#45;&gt;CommunityEvolves -->
<g id="edge6" class="edge">
<title>Flexible&#45;&gt;CommunityEvolves</title>
<path fill="none" stroke="black" d="M636.08,-88.19C644.35,-88.28 652.93,-88.36 661.56,-88.45"/>
<polygon fill="black" stroke="black" points="661.67,-91.95 671.71,-88.55 661.74,-84.95 661.67,-91.95"/>
</g>
<!-- DeFactoStandard -->
<g id="node8" class="node">
<title>DeFactoStandard</title>
<polygon fill="#f9f9f9" stroke="black" points="848,-53 690,-53 690,0 848,0 848,-53"/>
<text text-anchor="middle" x="769" y="-37.8" font-family="Helvetica,sans-Serif" font-size="14.00">Early Versions Become</text>
<text text-anchor="middle" x="769" y="-22.8" font-family="Helvetica,sans-Serif" font-size="14.00">defacto Standard</text>
<text text-anchor="middle" x="769" y="-7.8" font-family="Helvetica,sans-Serif" font-size="14.00">(Hard to Change)</text>
</g>
<!-- HardToEvolve&#45;&gt;DeFactoStandard -->
<g id="edge7" class="edge">
<title>HardToEvolve&#45;&gt;DeFactoStandard</title>
<path fill="none" stroke="black" d="M632.14,-29.19C647.24,-28.89 663.53,-28.57 679.4,-28.25"/>
<polygon fill="black" stroke="black" points="679.83,-31.75 689.76,-28.05 679.69,-24.75 679.83,-31.75"/>
</g>
<!-- ProtocolAdapts -->
<g id="node9" class="node">
<title>ProtocolAdapts</title>
<polygon fill="#f9f9f9" stroke="black" points="1096,-107.5 902,-107.5 902,-71.5 1096,-71.5 1096,-107.5"/>
<text text-anchor="middle" x="999" y="-85.8" font-family="Helvetica,sans-Serif" font-size="14.00">Protocol can adapt &amp; improve</text>
</g>
<!-- CommunityEvolves&#45;&gt;ProtocolAdapts -->
<g id="edge8" class="edge">
<title>CommunityEvolves&#45;&gt;ProtocolAdapts</title>
<path fill="none" stroke="black" d="M866.03,-89.5C874.52,-89.5 883.14,-89.5 891.7,-89.5"/>
<polygon fill="black" stroke="black" points="891.71,-93 901.71,-89.5 891.71,-86 891.71,-93"/>
</g>
<!-- Ossification -->
<g id="node10" class="node">
<title>Ossification</title>
<polygon fill="#f9f9f9" stroke="black" points="1060,-53 938,-53 938,0 1060,0 1060,-53"/>
<text text-anchor="middle" x="999" y="-37.8" font-family="Helvetica,sans-Serif" font-size="14.00">Ossification:</text>
<text text-anchor="middle" x="999" y="-22.8" font-family="Helvetica,sans-Serif" font-size="14.00">&#45; Incompatibilities</text>
<text text-anchor="middle" x="999" y="-7.8" font-family="Helvetica,sans-Serif" font-size="14.00">&#45; Stagnation</text>
</g>
<!-- DeFactoStandard&#45;&gt;Ossification -->
<g id="edge9" class="edge">
<title>DeFactoStandard&#45;&gt;Ossification</title>
<path fill="none" stroke="black" d="M848.15,-26.5C873.98,-26.5 902.54,-26.5 927.75,-26.5"/>
<polygon fill="black" stroke="black" points="927.96,-30 937.96,-26.5 927.96,-23 927.96,-30"/>
</g>
</g>
</svg>
