<?xml version="1.0" encoding="UTF-8" standalone="no"?>
<!DOCTYPE svg PUBLIC "-//W3C//DTD SVG 1.1//EN"
 "http://www.w3.org/Graphics/SVG/1.1/DTD/svg11.dtd">
<!-- Generated by graphviz version 2.43.0 (0)
 -->
<!-- Title: PromiseGridArchitecture Pages: 1 -->
<svg width="805pt" height="290pt"
 viewBox="0.00 0.00 805.28 290.00" xmlns="http://www.w3.org/2000/svg" xmlns:xlink="http://www.w3.org/1999/xlink">
<g id="graph0" class="graph" transform="scale(1 1) rotate(0) translate(4 286)">
<title>PromiseGridArchitecture</title>
<polygon fill="white" stroke="transparent" points="-4,4 -4,-286 801.28,-286 801.28,4 -4,4"/>
<g id="clust1" class="cluster">
<title>cluster_microkernel1</title>
<polygon fill="#f0f8ff" stroke="black" points="487.11,-8 487.11,-173 789.28,-173 789.28,-8 487.11,-8"/>
<text text-anchor="middle" x="638.2" y="-157.8" font-family="Times,serif" font-size="14.00">Microkernel on Node 1</text>
</g>
<g id="clust2" class="cluster">
<title>cluster_microkernel2</title>
<polygon fill="#f0f8ff" stroke="black" points="7,-44 7,-137 151.87,-137 151.87,-44 7,-44"/>
<text text-anchor="middle" x="79.43" y="-121.8" font-family="Times,serif" font-size="14.00">Microkernel on Node 2</text>
</g>
<g id="clust3" class="cluster">
<title>cluster_microkernel3</title>
<polygon fill="#f0f8ff" stroke="black" points="171.87,-44 171.87,-137 467.11,-137 467.11,-44 171.87,-44"/>
<text text-anchor="middle" x="319.49" y="-121.8" font-family="Times,serif" font-size="14.00">Microkernel on Node 3</text>
</g>
<g id="clust4" class="cluster">
<title>cluster_microkernel4</title>
<polygon fill="#f0f8ff" stroke="black" points="652.29,-181 652.29,-274 796.73,-274 796.73,-181 652.29,-181"/>
<text text-anchor="middle" x="724.51" y="-258.8" font-family="Times,serif" font-size="14.00">Microkernel on Node 4</text>
</g>
<!-- gpu1_agent -->
<g id="node1" class="node">
<title>gpu1_agent</title>
<ellipse fill="#ffcccb" stroke="black" cx="724.01" cy="-115" rx="45.92" ry="26.74"/>
<text text-anchor="middle" x="724.01" y="-118.8" font-family="Helvetica,sans-Serif" font-size="14.00">Agent A</text>
<text text-anchor="middle" x="724.01" y="-103.8" font-family="Helvetica,sans-Serif" font-size="14.00">(GPU)</text>
</g>
<!-- storage_agent -->
<g id="node2" class="node">
<title>storage_agent</title>
<ellipse fill="#e0f2f7" stroke="black" cx="555.92" cy="-115" rx="51.74" ry="26.74"/>
<text text-anchor="middle" x="555.92" y="-118.8" font-family="Helvetica,sans-Serif" font-size="14.00">Agent B</text>
<text text-anchor="middle" x="555.92" y="-103.8" font-family="Helvetica,sans-Serif" font-size="14.00">(Storage)</text>
</g>
<!-- compute_agent -->
<g id="node3" class="node">
<title>compute_agent</title>
<ellipse fill="#e0f2f7" stroke="black" cx="724.01" cy="-43" rx="57.05" ry="26.74"/>
<text text-anchor="middle" x="724.01" y="-46.8" font-family="Helvetica,sans-Serif" font-size="14.00">Agent C</text>
<text text-anchor="middle" x="724.01" y="-31.8" font-family="Helvetica,sans-Serif" font-size="14.00">(Compute)</text>
</g>
<!-- ml_model_agent -->
<g id="node4" class="node">
<title>ml_model_agent</title>
<ellipse fill="#e0f2f7" stroke="black" cx="555.92" cy="-43" rx="60.62" ry="26.74"/>
<text text-anchor="middle" x="555.92" y="-46.8" font-family="Helvetica,sans-Serif" font-size="14.00">Agent E</text>
<text text-anchor="middle" x="555.92" y="-31.8" font-family="Helvetica,sans-Serif" font-size="14.00">(ML Model)</text>
</g>
<!-- ml_model_agent&#45;&#45;gpu1_agent -->
<g id="edge4" class="edge">
<title>ml_model_agent&#45;&#45;gpu1_agent</title>
<path fill="none" stroke="black" d="M600.12,-61.73C626.94,-73.35 661.02,-88.13 686.48,-99.17"/>
</g>
<!-- ml_model_agent&#45;&#45;compute_agent -->
<g id="edge6" class="edge">
<title>ml_model_agent&#45;&#45;compute_agent</title>
<path fill="none" stroke="black" d="M616.88,-43C633.05,-43 650.49,-43 666.46,-43"/>
</g>
<!-- gpu2_agent -->
<g id="node8" class="node">
<title>gpu2_agent</title>
<ellipse fill="#e0f2f7" stroke="#00ff00" cx="724.01" cy="-216" rx="41.94" ry="26.74"/>
<text text-anchor="middle" x="724.01" y="-219.8" font-family="Helvetica,sans-Serif" font-size="14.00">Agent I</text>
<text text-anchor="middle" x="724.01" y="-204.8" font-family="Helvetica,sans-Serif" font-size="14.00">(GPU)</text>
</g>
<!-- ml_model_agent&#45;&#45;gpu2_agent -->
<g id="edge5" class="edge">
<title>ml_model_agent&#45;&#45;gpu2_agent</title>
<path fill="none" stroke="black" d="M598.15,-62.64C605.02,-67.28 611.57,-72.73 616.73,-79 646.17,-114.78 622.18,-141.78 652.29,-177 661.67,-187.98 674.95,-196.43 687.48,-202.62"/>
</g>
<!-- iot_agent -->
<g id="node5" class="node">
<title>iot_agent</title>
<ellipse fill="#e0f2f7" stroke="black" cx="78.93" cy="-79" rx="62.87" ry="26.74"/>
<text text-anchor="middle" x="78.93" y="-82.8" font-family="Helvetica,sans-Serif" font-size="14.00">Agent D</text>
<text text-anchor="middle" x="78.93" y="-67.8" font-family="Helvetica,sans-Serif" font-size="14.00">(IoT sensor)</text>
</g>
<!-- app_agent -->
<g id="node7" class="node">
<title>app_agent</title>
<ellipse fill="#e0f2f7" stroke="black" cx="244.92" cy="-79" rx="65.11" ry="26.74"/>
<text text-anchor="middle" x="244.92" y="-82.8" font-family="Helvetica,sans-Serif" font-size="14.00">Agent G</text>
<text text-anchor="middle" x="244.92" y="-67.8" font-family="Helvetica,sans-Serif" font-size="14.00">(Application)</text>
</g>
<!-- iot_agent&#45;&#45;app_agent -->
<g id="edge3" class="edge">
<title>iot_agent&#45;&#45;app_agent</title>
<path fill="none" stroke="black" d="M141.93,-79C154.26,-79 167.24,-79 179.65,-79"/>
</g>
<!-- payment_agent -->
<g id="node6" class="node">
<title>payment_agent</title>
<ellipse fill="#e0f2f7" stroke="black" cx="402.54" cy="-79" rx="56.64" ry="26.74"/>
<text text-anchor="middle" x="402.54" y="-82.8" font-family="Helvetica,sans-Serif" font-size="14.00">Agent F</text>
<text text-anchor="middle" x="402.54" y="-67.8" font-family="Helvetica,sans-Serif" font-size="14.00">(Payment)</text>
</g>
<!-- payment_agent&#45;&#45;storage_agent -->
<g id="edge7" class="edge">
<title>payment_agent&#45;&#45;storage_agent</title>
<path fill="none" stroke="black" d="M453.53,-90.89C471.27,-95.11 491.15,-99.83 508.57,-103.98"/>
</g>
<!-- app_agent&#45;&#45;compute_agent -->
<g id="edge1" class="edge">
<title>app_agent&#45;&#45;compute_agent</title>
<path fill="none" stroke="black" d="M290.86,-59.79C360.47,-32.42 498.64,12.46 616.73,-7 638.45,-10.58 661.7,-18.01 680.9,-25.2"/>
</g>
<!-- app_agent&#45;&#45;payment_agent -->
<g id="edge2" class="edge">
<title>app_agent&#45;&#45;payment_agent</title>
<path fill="none" stroke="black" d="M310.11,-79C322,-79 334.33,-79 345.94,-79"/>
</g>
</g>
</svg>
