<?xml version="1.0" encoding="UTF-8" standalone="no"?>
<!DOCTYPE svg PUBLIC "-//W3C//DTD SVG 1.1//EN"
 "http://www.w3.org/Graphics/SVG/1.1/DTD/svg11.dtd">
<!-- Generated by graphviz version 2.43.0 (0)
 -->
<!-- Title: PromiseGridArchitecture Pages: 1 -->
<svg width="634pt" height="261pt"
 viewBox="0.00 0.00 634.49 261.00" xmlns="http://www.w3.org/2000/svg" xmlns:xlink="http://www.w3.org/1999/xlink">
<g id="graph0" class="graph" transform="scale(1 1) rotate(0) translate(4 257)">
<title>PromiseGridArchitecture</title>
<polygon fill="white" stroke="transparent" points="-4,4 -4,-257 630.49,-257 630.49,4 -4,4"/>
<g id="clust1" class="cluster">
<title>cluster_microkernel1</title>
<polygon fill="#f0f8ff" stroke="black" points="8,-8 8,-245 296.17,-245 296.17,-8 8,-8"/>
<text text-anchor="middle" x="152.09" y="-229.8" font-family="Times,serif" font-size="14.00">Microkernel Node 1</text>
</g>
<g id="clust2" class="cluster">
<title>cluster_microkernel2</title>
<polygon fill="#f0f8ff" stroke="black" points="478.04,-84 478.04,-177 618.49,-177 618.49,-84 478.04,-84"/>
<text text-anchor="middle" x="548.26" y="-161.8" font-family="Times,serif" font-size="14.00">Microkernel Node 2</text>
</g>
<g id="clust3" class="cluster">
<title>cluster_microkernel3</title>
<polygon fill="#f0f8ff" stroke="black" points="316.17,-80 316.17,-245 458.04,-245 458.04,-80 316.17,-80"/>
<text text-anchor="middle" x="387.11" y="-229.8" font-family="Times,serif" font-size="14.00">Microkernel Node 3</text>
</g>
<!-- agent1_1 -->
<g id="node1" class="node">
<title>agent1_1</title>
<ellipse fill="#e0f2f7" stroke="black" cx="76.81" cy="-43" rx="45.92" ry="26.74"/>
<text text-anchor="middle" x="76.81" y="-46.8" font-family="Helvetica,sans-Serif" font-size="14.00">Agent A</text>
<text text-anchor="middle" x="76.81" y="-31.8" font-family="Helvetica,sans-Serif" font-size="14.00">(GPU)</text>
</g>
<!-- agent2_1 -->
<g id="node5" class="node">
<title>agent2_1</title>
<ellipse fill="#e0f2f7" stroke="black" cx="548.26" cy="-119" rx="62.45" ry="26.74"/>
<text text-anchor="middle" x="548.26" y="-122.8" font-family="Helvetica,sans-Serif" font-size="14.00">Agent D</text>
<text text-anchor="middle" x="548.26" y="-107.8" font-family="Helvetica,sans-Serif" font-size="14.00">(IoT Bridge)</text>
</g>
<!-- agent1_1&#45;&gt;agent2_1 -->
<g id="edge1" class="edge">
<title>agent1_1&#45;&gt;agent2_1</title>
<path fill="none" stroke="black" d="M122.93,-41.71C195.08,-40.8 340.31,-43.69 458.04,-76 472.59,-79.99 487.65,-86.3 501.16,-92.87"/>
<polygon fill="black" stroke="black" points="499.73,-96.07 510.24,-97.43 502.87,-89.81 499.73,-96.07"/>
</g>
<!-- agent1_2 -->
<g id="node2" class="node">
<title>agent1_2</title>
<ellipse fill="#e0f2f7" stroke="black" cx="76.81" cy="-115" rx="51.74" ry="26.74"/>
<text text-anchor="middle" x="76.81" y="-118.8" font-family="Helvetica,sans-Serif" font-size="14.00">Agent B</text>
<text text-anchor="middle" x="76.81" y="-103.8" font-family="Helvetica,sans-Serif" font-size="14.00">(Storage)</text>
</g>
<!-- agent3_2 -->
<g id="node7" class="node">
<title>agent3_2</title>
<ellipse fill="#e0f2f7" stroke="black" cx="387.11" cy="-115" rx="62.87" ry="26.74"/>
<text text-anchor="middle" x="387.11" y="-118.8" font-family="Helvetica,sans-Serif" font-size="14.00">Agent G</text>
<text text-anchor="middle" x="387.11" y="-103.8" font-family="Helvetica,sans-Serif" font-size="14.00">(Data Feed)</text>
</g>
<!-- agent1_2&#45;&gt;agent3_2 -->
<g id="edge2" class="edge">
<title>agent1_2&#45;&gt;agent3_2</title>
<path fill="none" stroke="black" d="M128.72,-115C179.22,-115 257.07,-115 313.94,-115"/>
<polygon fill="black" stroke="black" points="313.94,-118.5 323.94,-115 313.94,-111.5 313.94,-118.5"/>
</g>
<!-- agent1_3 -->
<g id="node3" class="node">
<title>agent1_3</title>
<ellipse fill="#e0f2f7" stroke="black" cx="230.9" cy="-187" rx="57.05" ry="26.74"/>
<text text-anchor="middle" x="230.9" y="-190.8" font-family="Helvetica,sans-Serif" font-size="14.00">Agent C</text>
<text text-anchor="middle" x="230.9" y="-175.8" font-family="Helvetica,sans-Serif" font-size="14.00">(Compute)</text>
</g>
<!-- agent3_1 -->
<g id="node6" class="node">
<title>agent3_1</title>
<ellipse fill="#e0f2f7" stroke="black" cx="387.11" cy="-187" rx="56.64" ry="26.74"/>
<text text-anchor="middle" x="387.11" y="-190.8" font-family="Helvetica,sans-Serif" font-size="14.00">Agent F</text>
<text text-anchor="middle" x="387.11" y="-175.8" font-family="Helvetica,sans-Serif" font-size="14.00">(Payment)</text>
</g>
<!-- agent1_3&#45;&gt;agent3_1 -->
<g id="edge5" class="edge">
<title>agent1_3&#45;&gt;agent3_1</title>
<path fill="none" stroke="black" d="M288.44,-187C298.8,-187 309.69,-187 320.29,-187"/>
<polygon fill="black" stroke="black" points="320.34,-190.5 330.34,-187 320.34,-183.5 320.34,-190.5"/>
</g>
<!-- agent1_4 -->
<g id="node4" class="node">
<title>agent1_4</title>
<ellipse fill="#e0f2f7" stroke="black" cx="76.81" cy="-187" rx="60.62" ry="26.74"/>
<text text-anchor="middle" x="76.81" y="-190.8" font-family="Helvetica,sans-Serif" font-size="14.00">Agent E</text>
<text text-anchor="middle" x="76.81" y="-175.8" font-family="Helvetica,sans-Serif" font-size="14.00">(ML Model)</text>
</g>
<!-- agent1_4&#45;&gt;agent1_3 -->
<g id="edge3" class="edge">
<title>agent1_4&#45;&gt;agent1_3</title>
<path fill="none" stroke="black" d="M137.92,-187C146.18,-187 154.71,-187 163.09,-187"/>
<polygon fill="black" stroke="black" points="163.2,-190.5 173.2,-187 163.2,-183.5 163.2,-190.5"/>
</g>
<!-- agent3_1&#45;&gt;agent2_1 -->
<g id="edge4" class="edge">
<title>agent3_1&#45;&gt;agent2_1</title>
<path fill="none" stroke="black" d="M429.92,-169.13C449.57,-160.74 473.22,-150.64 494.12,-141.71"/>
<polygon fill="black" stroke="black" points="495.68,-144.84 503.5,-137.7 492.93,-138.41 495.68,-144.84"/>
</g>
</g>
</svg>
