<!DOCTYPE svg PUBLIC "-//W3C//DTD SVG 1.1//EN" "http://www.w3.org/Graphics/SVG/1.1/DTD/svg11.dtd">
<!-- Created with ASCIItoSVG -->
<svg width="630px" height="432px" version="1.1" xmlns="http://www.w3.org/2000/svg" xmlns:xlink="http://www.w3.org/1999/xlink">
  <defs>
    <filter id="dsFilter" width="150%" height="150%">
      <feOffset result="offOut" in="SourceGraphic" dx="2" dy="2"/>
      <feColorMatrix result="matrixOut" in="offOut" type="matrix" values="0.2 0 0 0 0 0 0.2 0 0 0 0 0 0.2 0 0 0 0 0 1 0"/>
      <feGaussianBlur result="blurOut" in="matrixOut" stdDeviation="3"/>
      <feBlend in="SourceGraphic" in2="blurOut" mode="normal"/>
    </filter>
    <marker id="iPointer"
      viewBox="0 0 10 10" refX="5" refY="5"
      markerUnits="strokeWidth"
      markerWidth="8" markerHeight="15"
      orient="auto">
      <path d="M 10 0 L 10 10 L 0 5 z" />
    </marker>
    <marker id="Pointer"
      viewBox="0 0 10 10" refX="5" refY="5"
      markerUnits="strokeWidth"
      markerWidth="8" markerHeight="15"
      orient="auto">
      <path d="M 0 0 L 10 5 L 0 10 z" />
    </marker>
  </defs>
  <g id="closed" filter="url(#dsFilter)" stroke="#000" stroke-width="2" fill="none">
    <path id="closed0" filter="url(#dsFilter)" fill="#fff" d="M 4.5 8 L 13.5 8 L 22.5 8 L 31.5 8 L 40.5 8 L 49.5 8 L 58.5 8 L 67.5 8 L 76.5 8 L 85.5 8 L 94.5 8 L 103.5 8 L 112.5 8 L 121.5 8 L 130.5 8 L 139.5 8 L 148.5 8 L 157.5 8 L 166.5 8 L 175.5 8 L 184.5 8 L 193.5 8 L 202.5 8 L 211.5 8 L 220.5 8 L 229.5 8 L 238.5 8 L 247.5 8 L 256.5 8 L 265.5 8 L 274.5 8 L 274.5 24 L 274.5 40 L 274.5 56 L 274.5 72 L 274.5 88 L 274.5 104 L 274.5 120 L 274.5 136 L 274.5 152 L 265.5 152 L 256.5 152 L 247.5 152 L 238.5 152 L 229.5 152 L 220.5 152 L 211.5 152 L 202.5 152 L 193.5 152 L 184.5 152 L 175.5 152 L 166.5 152 L 157.5 152 L 148.5 152 L 139.5 152 L 130.5 152 L 121.5 152 L 112.5 152 L 103.5 152 L 94.5 152 L 85.5 152 L 76.5 152 L 67.5 152 L 58.5 152 L 49.5 152 L 40.5 152 L 31.5 152 L 22.5 152 L 13.5 152 L 4.5 152 L 4.5 136 L 4.5 120 L 4.5 104 L 4.5 88 L 4.5 72 L 4.5 56 L 4.5 40 L 4.5 24 Z" />
    <path id="closed2" fill="#fff" filter="url(#dsFilter)" d="M 346.5 8 L 355.5 8 L 364.5 8 L 373.5 8 L 382.5 8 L 391.5 8 L 400.5 8 L 409.5 8 L 418.5 8 L 427.5 8 L 436.5 8 L 445.5 8 L 454.5 8 L 463.5 8 L 472.5 8 L 481.5 8 L 490.5 8 L 499.5 8 L 508.5 8 L 517.5 8 L 526.5 8 L 535.5 8 L 544.5 8 L 553.5 8 L 562.5 8 L 571.5 8 L 580.5 8 L 589.5 8 L 598.5 8 L 607.5 8 L 616.5 8 L 616.5 24 L 616.5 40 L 616.5 56 L 616.5 72 L 616.5 88 L 616.5 104 L 616.5 120 L 616.5 136 L 616.5 152 L 607.5 152 L 598.5 152 L 589.5 152 L 580.5 152 L 571.5 152 L 562.5 152 L 553.5 152 L 544.5 152 L 535.5 152 L 526.5 152 L 517.5 152 L 508.5 152 L 499.5 152 L 490.5 152 L 481.5 152 L 472.5 152 L 463.5 152 L 454.5 152 L 445.5 152 L 436.5 152 L 427.5 152 L 418.5 152 L 409.5 152 L 400.5 152 L 391.5 152 L 382.5 152 L 373.5 152 L 364.5 152 L 355.5 152 L 346.5 152 L 346.5 136 L 346.5 120 L 346.5 104 L 346.5 88 L 346.5 72 L 346.5 56 L 346.5 40 L 346.5 24 Z" />
    <path id="closed6" fill="#fff" filter="url(#dsFilter)" d="M 4.5 216 L 13.5 216 L 22.5 216 L 31.5 216 L 40.5 216 L 49.5 216 L 58.5 216 L 67.5 216 L 76.5 216 L 85.5 216 L 94.5 216 L 103.5 216 L 112.5 216 L 121.5 216 L 130.5 216 L 139.5 216 L 148.5 216 L 157.5 216 L 166.5 216 L 175.5 216 L 184.5 216 L 193.5 216 L 202.5 216 L 211.5 216 L 220.5 216 L 229.5 216 L 238.5 216 L 247.5 216 L 256.5 216 L 265.5 216 L 274.5 216 L 274.5 232 L 274.5 248 L 274.5 264 L 265.5 264 L 256.5 264 L 247.5 264 L 238.5 264 L 229.5 264 L 220.5 264 L 211.5 264 L 202.5 264 L 193.5 264 L 184.5 264 L 175.5 264 L 166.5 264 L 157.5 264 L 148.5 264 L 139.5 264 L 130.5 264 L 121.5 264 L 112.5 264 L 103.5 264 L 94.5 264 L 85.5 264 L 76.5 264 L 67.5 264 L 58.5 264 L 49.5 264 L 40.5 264 L 31.5 264 L 22.5 264 L 13.5 264 L 4.5 264 L 4.5 248 L 4.5 232 Z" />
    <path id="closed8" fill="#fff" filter="url(#dsFilter)" d="M 346.5 216 L 355.5 216 L 364.5 216 L 373.5 216 L 382.5 216 L 391.5 216 L 400.5 216 L 409.5 216 L 418.5 216 L 427.5 216 L 436.5 216 L 445.5 216 L 454.5 216 L 463.5 216 L 472.5 216 L 481.5 216 L 490.5 216 L 499.5 216 L 508.5 216 L 517.5 216 L 526.5 216 L 535.5 216 L 544.5 216 L 553.5 216 L 562.5 216 L 571.5 216 L 580.5 216 L 589.5 216 L 598.5 216 L 607.5 216 L 616.5 216 L 616.5 232 L 616.5 248 L 616.5 264 L 607.5 264 L 598.5 264 L 589.5 264 L 580.5 264 L 571.5 264 L 562.5 264 L 553.5 264 L 544.5 264 L 535.5 264 L 526.5 264 L 517.5 264 L 508.5 264 L 499.5 264 L 490.5 264 L 481.5 264 L 472.5 264 L 463.5 264 L 454.5 264 L 445.5 264 L 436.5 264 L 427.5 264 L 418.5 264 L 409.5 264 L 400.5 264 L 391.5 264 L 382.5 264 L 373.5 264 L 364.5 264 L 355.5 264 L 346.5 264 L 346.5 248 L 346.5 232 Z" />
    <path id="closed10" fill="#fff" filter="url(#dsFilter)" d="M 4.5 328 L 13.5 328 L 22.5 328 L 31.5 328 L 40.5 328 L 49.5 328 L 58.5 328 L 67.5 328 L 76.5 328 L 85.5 328 L 94.5 328 L 103.5 328 L 112.5 328 L 121.5 328 L 130.5 328 L 139.5 328 L 148.5 328 L 157.5 328 L 166.5 328 L 175.5 328 L 184.5 328 L 193.5 328 L 202.5 328 L 211.5 328 L 220.5 328 L 229.5 328 L 238.5 328 L 247.5 328 L 256.5 328 L 265.5 328 L 274.5 328 L 274.5 344 L 274.5 360 L 274.5 376 L 274.5 392 L 265.5 392 L 256.5 392 L 247.5 392 L 238.5 392 L 229.5 392 L 220.5 392 L 211.5 392 L 202.5 392 L 193.5 392 L 184.5 392 L 175.5 392 L 166.5 392 L 157.5 392 L 148.5 392 L 139.5 392 L 130.5 392 L 121.5 392 L 112.5 392 L 103.5 392 L 94.5 392 L 85.5 392 L 76.5 392 L 67.5 392 L 58.5 392 L 49.5 392 L 40.5 392 L 31.5 392 L 22.5 392 L 13.5 392 L 4.5 392 L 4.5 376 L 4.5 360 L 4.5 344 Z" />
    <path id="closed11" fill="#fff" filter="url(#dsFilter)" d="M 346.5 328 L 355.5 328 L 364.5 328 L 373.5 328 L 382.5 328 L 391.5 328 L 400.5 328 L 409.5 328 L 418.5 328 L 427.5 328 L 436.5 328 L 445.5 328 L 454.5 328 L 463.5 328 L 472.5 328 L 481.5 328 L 490.5 328 L 499.5 328 L 508.5 328 L 517.5 328 L 526.5 328 L 535.5 328 L 544.5 328 L 553.5 328 L 562.5 328 L 571.5 328 L 580.5 328 L 589.5 328 L 598.5 328 L 607.5 328 L 616.5 328 L 616.5 344 L 616.5 360 L 616.5 376 L 616.5 392 L 607.5 392 L 598.5 392 L 589.5 392 L 580.5 392 L 571.5 392 L 562.5 392 L 553.5 392 L 544.5 392 L 535.5 392 L 526.5 392 L 517.5 392 L 508.5 392 L 499.5 392 L 490.5 392 L 481.5 392 L 472.5 392 L 463.5 392 L 454.5 392 L 445.5 392 L 436.5 392 L 427.5 392 L 418.5 392 L 409.5 392 L 400.5 392 L 391.5 392 L 382.5 392 L 373.5 392 L 364.5 392 L 355.5 392 L 346.5 392 L 346.5 376 L 346.5 360 L 346.5 344 Z" />
  </g>
  <g id="lines" stroke="#000" stroke-width="2" fill="none">
    <path id="open1" marker-end="url(#Pointer)" d="M 4.5 8 L 13.5 8 L 22.5 8 L 31.5 8 L 40.5 8 L 49.5 8 L 58.5 8 L 67.5 8 L 76.5 8 L 85.5 8 L 94.5 8 L 103.5 8 L 112.5 8 L 121.5 8 L 130.5 8 L 139.5 8 L 148.5 8 L 157.5 8 L 166.5 8 L 175.5 8 L 184.5 8 L 193.5 8 L 202.5 8 L 211.5 8 L 220.5 8 L 229.5 8 L 238.5 8 L 247.5 8 L 256.5 8 L 265.5 8 L 274.5 8 L 274.5 24 L 274.5 40 L 274.5 56 L 274.5 72 L 274.5 88 L 274.5 104 L 274.5 120 L 274.5 136 L 274.5 152 L 265.5 152 L 256.5 152 L 247.5 152 L 238.5 152 L 229.5 152 L 220.5 152 L 211.5 152 L 202.5 152 L 193.5 152 L 184.5 152 L 175.5 152 L 166.5 152 L 157.5 152 L 148.5 152 L 139.5 152 L 130.5 152 L 130.5 168 L 130.5 184 L 130.5 200 " />
    <path id="open3" marker-end="url(#Pointer)" d="M 346.5 8 L 355.5 8 L 364.5 8 L 373.5 8 L 382.5 8 L 391.5 8 L 400.5 8 L 409.5 8 L 418.5 8 L 427.5 8 L 436.5 8 L 445.5 8 L 454.5 8 L 463.5 8 L 472.5 8 L 481.5 8 L 490.5 8 L 499.5 8 L 508.5 8 L 517.5 8 L 526.5 8 L 535.5 8 L 544.5 8 L 553.5 8 L 562.5 8 L 571.5 8 L 580.5 8 L 589.5 8 L 598.5 8 L 607.5 8 L 616.5 8 L 616.5 24 L 616.5 40 L 616.5 56 L 616.5 72 L 616.5 88 L 616.5 104 L 616.5 120 L 616.5 136 L 616.5 152 L 607.5 152 L 598.5 152 L 589.5 152 L 580.5 152 L 571.5 152 L 562.5 152 L 553.5 152 L 544.5 152 L 535.5 152 L 526.5 152 L 517.5 152 L 508.5 152 L 499.5 152 L 490.5 152 L 481.5 152 L 472.5 152 L 472.5 168 L 472.5 184 L 472.5 200 " />
    <path id="open4" d="M 13.5 40 L 22.5 40 L 31.5 40 L 40.5 40 L 49.5 40 L 58.5 40 L 67.5 40 L 76.5 40 L 85.5 40 L 94.5 40 L 103.5 40 L 112.5 40 L 121.5 40 L 130.5 40 L 139.5 40 L 148.5 40 L 157.5 40 L 166.5 40 L 175.5 40 L 184.5 40 L 193.5 40 L 202.5 40 L 211.5 40 L 220.5 40 L 229.5 40 L 238.5 40 L 247.5 40 L 256.5 40 L 265.5 40 " />
    <path id="open5" d="M 355.5 40 L 364.5 40 L 373.5 40 L 382.5 40 L 391.5 40 L 400.5 40 L 409.5 40 L 418.5 40 L 427.5 40 L 436.5 40 L 445.5 40 L 454.5 40 L 463.5 40 L 472.5 40 L 481.5 40 L 490.5 40 L 499.5 40 L 508.5 40 L 517.5 40 L 526.5 40 L 535.5 40 L 544.5 40 L 553.5 40 L 562.5 40 L 571.5 40 L 580.5 40 L 589.5 40 L 598.5 40 L 607.5 40 " />
    <path id="open7" marker-end="url(#Pointer)" d="M 4.5 216 L 13.5 216 L 22.5 216 L 31.5 216 L 40.5 216 L 49.5 216 L 58.5 216 L 67.5 216 L 76.5 216 L 85.5 216 L 94.5 216 L 103.5 216 L 112.5 216 L 121.5 216 L 130.5 216 L 139.5 216 L 148.5 216 L 157.5 216 L 166.5 216 L 175.5 216 L 184.5 216 L 193.5 216 L 202.5 216 L 211.5 216 L 220.5 216 L 229.5 216 L 238.5 216 L 247.5 216 L 256.5 216 L 265.5 216 L 274.5 216 L 274.5 232 L 274.5 248 L 274.5 264 L 265.5 264 L 256.5 264 L 247.5 264 L 238.5 264 L 229.5 264 L 220.5 264 L 211.5 264 L 202.5 264 L 193.5 264 L 184.5 264 L 175.5 264 L 166.5 264 L 157.5 264 L 148.5 264 L 139.5 264 L 130.5 264 L 130.5 280 L 130.5 296 L 130.5 312 " />
    <path id="open9" marker-end="url(#Pointer)" d="M 346.5 216 L 355.5 216 L 364.5 216 L 373.5 216 L 382.5 216 L 391.5 216 L 400.5 216 L 409.5 216 L 418.5 216 L 427.5 216 L 436.5 216 L 445.5 216 L 454.5 216 L 463.5 216 L 472.5 216 L 481.5 216 L 490.5 216 L 499.5 216 L 508.5 216 L 517.5 216 L 526.5 216 L 535.5 216 L 544.5 216 L 553.5 216 L 562.5 216 L 571.5 216 L 580.5 216 L 589.5 216 L 598.5 216 L 607.5 216 L 616.5 216 L 616.5 232 L 616.5 248 L 616.5 264 L 607.5 264 L 598.5 264 L 589.5 264 L 580.5 264 L 571.5 264 L 562.5 264 L 553.5 264 L 544.5 264 L 535.5 264 L 526.5 264 L 517.5 264 L 508.5 264 L 499.5 264 L 490.5 264 L 481.5 264 L 472.5 264 L 472.5 280 L 472.5 296 L 472.5 312 " />
  </g>
  <g id="text" stroke="none" style="font-family:Consolas,Monaco,Anonymous Pro,Anonymous,Bitstream Sans Mono,monospace;font-size:15.2px" >
    <text id="obj12" x="40.5" y="24" fill="#000">Well-Designed Protocol</text>
    <text id="obj13" x="364.5" y="24" fill="#000">Poorly-Designed Protocol</text>
    <text id="obj14" x="31.5" y="56" fill="#000">&gt; Clear, compact message</text>
    <text id="obj15" x="373.5" y="56" fill="#000">&gt; Bloated, ambiguous</text>
    <text id="obj16" x="49.5" y="72" fill="#000">formats</text>
    <text id="obj17" x="391.5" y="72" fill="#000">message formats</text>
    <text id="obj18" x="31.5" y="88" fill="#000">&gt; Versioning &amp; extensible</text>
    <text id="obj19" x="373.5" y="88" fill="#000">&gt; No clear versioning</text>
    <text id="obj20" x="31.5" y="104" fill="#000">&gt; Efficient for all agents</text>
    <text id="obj21" x="373.5" y="104" fill="#000">&gt; Inefficient for IoT</text>
    <text id="obj22" x="31.5" y="120" fill="#000">&gt; Secure, authenticated</text>
    <text id="obj23" x="373.5" y="120" fill="#000">&gt; Vulnerable to attacks</text>
    <text id="obj24" x="31.5" y="136" fill="#000">&gt; Decentralization ready</text>
    <text id="obj25" x="373.5" y="136" fill="#000">&gt; Centralization pressure</text>
    <text id="obj26" x="22.5" y="232" fill="#000">Agents can be full OS,</text>
    <text id="obj27" x="364.5" y="232" fill="#000">Agents can be full OS only,</text>
    <text id="obj28" x="22.5" y="248" fill="#000">Browser, IoT, Mobile, etc.</text>
    <text id="obj29" x="364.5" y="248" fill="#000">IoT excluded by bloat</text>
    <text id="obj30" x="31.5" y="344" fill="#000">&gt; Broad adoption</text>
    <text id="obj31" x="373.5" y="344" fill="#000">&gt; Limited adoption</text>
    <text id="obj32" x="31.5" y="360" fill="#000">&gt; General purpose</text>
    <text id="obj33" x="373.5" y="360" fill="#000">&gt; Narrow use cases</text>
    <text id="obj34" x="31.5" y="376" fill="#000">&gt; Durable, long-term use</text>
    <text id="obj35" x="373.5" y="376" fill="#000">&gt; Short-lived, temporary</text>
  </g>
</svg>
